<svg xmlns="http://www.w3.org/2000/svg" xmlns:xlink="http://www.w3.org/1999/xlink" width="500" zoomAndPan="magnify" viewBox="0 0 375 374.999991" height="500" preserveAspectRatio="xMidYMid meet" version="1.2"><defs><clipPath id="9a7858b150"><path d="M 40 116 L 337.621094 116 L 337.621094 269.175781 L 40 269.175781 Z M 40 116 "/></clipPath><clipPath id="d5f3123a29"><path d="M 31.621094 105.675781 L 337.621094 105.675781 L 337.621094 269.175781 L 31.621094 269.175781 Z M 31.621094 105.675781 "/></clipPath></defs><g id="6a829b8e5b"><rect x="0" width="375" y="0" height="374.999991" style="fill:#ffffff;fill-opacity:1;stroke:none;"/><rect x="0" width="375" y="0" height="374.999991" style="fill:#ffffff;fill-opacity:1;stroke:none;"/><g clip-rule="nonzero" clip-path="url(#9a7858b150)"><path style=" stroke:none;fill-rule:nonzero;fill:#737373;fill-opacity:1;" d="M 305.144531 175.867188 C 303.753906 175.867188 302.394531 175.984375 301.054688 176.15625 C 301.363281 174.371094 301.554688 172.546875 301.554688 170.671875 C 301.554688 152.957031 287.191406 138.589844 269.472656 138.589844 C 264.300781 138.589844 259.429688 139.84375 255.105469 142.015625 C 249.355469 136.566406 241.609375 133.207031 233.066406 133.207031 C 230.355469 133.207031 227.730469 133.578125 225.210938 134.214844 C 219.878906 123.898438 209.128906 116.832031 196.714844 116.832031 C 183.070312 116.832031 171.445312 125.367188 166.808594 137.375 C 162.144531 134.730469 156.765625 133.207031 151.023438 133.207031 C 139.078125 133.207031 128.675781 139.75 123.152344 149.433594 C 117.984375 145.875 111.734375 143.785156 104.988281 143.785156 C 89.035156 143.785156 75.839844 155.445312 73.363281 170.695312 C 73.207031 170.695312 73.058594 170.671875 72.910156 170.671875 C 55.1875 170.671875 40.824219 185.035156 40.824219 202.757812 C 40.824219 220.476562 55.1875 234.839844 72.910156 234.839844 C 73.023438 234.839844 73.128906 234.828125 73.242188 234.828125 C 75.378906 250.46875 88.761719 262.53125 104.988281 262.53125 C 115.183594 262.53125 124.25 257.765625 130.121094 250.351562 C 135.59375 260.230469 146.109375 266.925781 158.203125 266.925781 C 168.015625 266.925781 176.789062 262.503906 182.675781 255.5625 C 188.480469 263.800781 198.050781 269.195312 208.894531 269.195312 C 223.925781 269.195312 236.507812 258.84375 239.992188 244.894531 C 240.652344 244.964844 241.328125 244.988281 242.003906 245.019531 C 245.53125 258.90625 258.078125 269.195312 273.066406 269.195312 C 289.800781 269.195312 303.523438 256.378906 305 240.027344 C 305.050781 240.027344 305.101562 240.035156 305.148438 240.035156 C 322.871094 240.035156 337.234375 225.671875 337.234375 207.953125 C 337.234375 190.230469 322.871094 175.867188 305.148438 175.867188 Z M 305.144531 175.867188 "/></g><path style=" stroke:none;fill-rule:nonzero;fill:#ffffff;fill-opacity:1;" d="M 297.285156 166.039062 C 295.894531 166.039062 294.535156 166.15625 293.191406 166.328125 C 293.503906 164.542969 293.695312 162.71875 293.695312 160.84375 C 293.695312 143.125 279.332031 128.757812 261.609375 128.757812 C 256.4375 128.757812 251.570312 130.011719 247.242188 132.183594 C 241.492188 126.738281 233.75 123.375 225.203125 123.375 C 222.492188 123.375 219.871094 123.75 217.351562 124.382812 C 212.015625 114.066406 201.269531 107.003906 188.855469 107.003906 C 175.210938 107.003906 163.582031 115.535156 158.945312 127.546875 C 154.28125 124.902344 148.90625 123.375 143.164062 123.375 C 131.214844 123.375 120.816406 129.917969 115.292969 139.605469 C 110.125 136.046875 103.871094 133.957031 97.128906 133.957031 C 81.175781 133.957031 67.980469 145.613281 65.5 160.867188 C 65.347656 160.867188 65.199219 160.84375 65.046875 160.84375 C 47.328125 160.84375 32.964844 175.207031 32.964844 192.925781 C 32.964844 210.648438 47.328125 225.011719 65.046875 225.011719 C 65.160156 225.011719 65.265625 224.996094 65.378906 224.996094 C 67.519531 240.640625 80.898438 252.703125 97.128906 252.703125 C 107.320312 252.703125 116.386719 247.933594 122.261719 240.523438 C 127.730469 250.402344 138.25 257.097656 150.339844 257.097656 C 160.15625 257.097656 168.925781 252.675781 174.8125 245.734375 C 180.621094 253.972656 190.1875 259.367188 201.035156 259.367188 C 216.066406 259.367188 228.644531 249.015625 232.128906 235.0625 C 232.789062 235.136719 233.464844 235.160156 234.144531 235.1875 C 237.671875 249.074219 250.21875 259.367188 265.203125 259.367188 C 281.9375 259.367188 295.664062 246.546875 297.140625 230.199219 C 297.1875 230.199219 297.238281 230.207031 297.289062 230.207031 C 315.007812 230.207031 329.371094 215.84375 329.371094 198.121094 C 329.371094 180.402344 315.007812 166.039062 297.289062 166.039062 Z M 297.285156 166.039062 "/><g clip-rule="nonzero" clip-path="url(#d5f3123a29)"><path style="fill:none;stroke-width:7;stroke-linecap:butt;stroke-linejoin:miter;stroke:#231f20;stroke-opacity:1;stroke-miterlimit:10;" d="M 703.204246 159.783954 C 699.52313 159.783954 695.924735 160.09416 692.367701 160.54913 C 693.194919 155.823652 693.701589 150.994771 693.701589 146.031468 C 693.701589 99.128255 655.68062 61.096945 608.767066 61.096945 C 595.076621 61.096945 582.192714 64.416154 570.735756 70.165313 C 555.51496 55.751054 535.020655 46.848129 512.396265 46.848129 C 505.220156 46.848129 498.281872 47.84079 491.612433 49.515905 C 477.4877 22.207398 449.041769 3.512289 416.180567 3.512289 C 380.062197 3.512289 349.279378 26.095318 337.005543 57.891478 C 324.659327 50.891153 310.431192 46.848129 295.231076 46.848129 C 263.600359 46.848129 236.074708 64.167989 221.453644 89.811721 C 207.77354 80.391786 191.218857 74.859771 173.371646 74.859771 C 131.142209 74.859771 96.212964 105.714971 89.646928 146.09351 C 89.243659 146.09351 88.850731 146.031468 88.447463 146.031468 C 41.544249 146.031468 3.52328 184.052438 3.52328 230.955652 C 3.52328 277.869206 41.544249 315.890175 88.447463 315.890175 C 88.747329 315.890175 89.026515 315.848814 89.326381 315.848814 C 94.992819 357.261374 130.408054 389.191957 173.371646 389.191957 C 200.349266 389.191957 224.348904 376.566555 239.900587 356.951167 C 254.376888 383.10157 282.223086 400.824698 314.22605 400.824698 C 340.21101 400.824698 363.424792 389.119575 379.007495 370.745014 C 394.383395 392.552527 419.70658 406.832363 448.421357 406.832363 C 488.210503 406.832363 521.505994 379.430794 530.729465 342.495547 C 532.476962 342.692011 534.265819 342.754053 536.065016 342.826434 C 545.40223 379.585897 578.615 406.832363 618.280063 406.832363 C 662.577543 406.832363 698.913057 372.895779 702.821658 329.62198 C 702.945741 329.62198 703.080164 329.642661 703.214587 329.642661 C 750.1178 329.642661 788.13877 291.621691 788.13877 244.708137 C 788.13877 197.804923 750.1178 159.783954 703.214587 159.783954 Z M 703.204246 159.783954 " transform="matrix(0.377773,0,0,0.377773,31.633845,105.677059)"/></g><g style="fill:#737373;fill-opacity:1;"><g transform="translate(112.79429, 196.636173)"><path style="stroke:none" d="M 1.859375 0 L 1.859375 -15.21875 L 5.21875 -15.21875 L 5.1875 -10.5 L 5.734375 -10.5 C 5.984375 -11.675781 6.328125 -12.640625 6.765625 -13.390625 C 7.203125 -14.140625 7.738281 -14.695312 8.375 -15.0625 C 9.007812 -15.4375 9.753906 -15.625 10.609375 -15.625 C 11.285156 -15.625 11.875 -15.503906 12.375 -15.265625 C 12.875 -15.035156 13.296875 -14.707031 13.640625 -14.28125 C 13.992188 -13.863281 14.269531 -13.332031 14.46875 -12.6875 C 14.675781 -12.050781 14.8125 -11.328125 14.875 -10.515625 L 15.328125 -10.515625 C 15.597656 -11.703125 15.972656 -12.671875 16.453125 -13.421875 C 16.941406 -14.171875 17.535156 -14.722656 18.234375 -15.078125 C 18.929688 -15.441406 19.691406 -15.625 20.515625 -15.625 C 21.484375 -15.625 22.28125 -15.425781 22.90625 -15.03125 C 23.539062 -14.632812 24.03125 -14.117188 24.375 -13.484375 C 24.71875 -12.859375 24.976562 -12.191406 25.15625 -11.484375 C 25.332031 -10.785156 25.4375 -10.101562 25.46875 -9.4375 C 25.507812 -8.769531 25.53125 -8.222656 25.53125 -7.796875 L 25.53125 0 L 21.359375 0 L 21.359375 -7.296875 C 21.359375 -7.671875 21.34375 -8.125 21.3125 -8.65625 C 21.289062 -9.1875 21.203125 -9.707031 21.046875 -10.21875 C 20.890625 -10.726562 20.640625 -11.15625 20.296875 -11.5 C 19.960938 -11.851562 19.492188 -12.03125 18.890625 -12.03125 C 18.273438 -12.03125 17.726562 -11.8125 17.25 -11.375 C 16.78125 -10.9375 16.414062 -10.335938 16.15625 -9.578125 C 15.894531 -8.816406 15.753906 -7.914062 15.734375 -6.875 L 15.734375 0 L 11.65625 0 L 11.65625 -7.15625 C 11.65625 -7.507812 11.640625 -7.953125 11.609375 -8.484375 C 11.578125 -9.023438 11.484375 -9.566406 11.328125 -10.109375 C 11.171875 -10.648438 10.925781 -11.101562 10.59375 -11.46875 C 10.257812 -11.84375 9.769531 -12.03125 9.125 -12.03125 C 8.507812 -12.03125 7.96875 -11.8125 7.5 -11.375 C 7.039062 -10.9375 6.6875 -10.332031 6.4375 -9.5625 C 6.1875 -8.789062 6.050781 -7.894531 6.03125 -6.875 L 6.03125 0 Z M 1.859375 0 "/></g></g><g style="fill:#737373;fill-opacity:1;"><g transform="translate(139.978046, 196.636173)"><path style="stroke:none" d="M 1.859375 0 L 1.859375 -15.21875 L 6.03125 -15.21875 L 6.03125 0 Z M 3.9375 -17.421875 C 3.132812 -17.421875 2.515625 -17.59375 2.078125 -17.9375 C 1.640625 -18.289062 1.421875 -18.785156 1.421875 -19.421875 C 1.421875 -20.097656 1.640625 -20.609375 2.078125 -20.953125 C 2.515625 -21.304688 3.132812 -21.484375 3.9375 -21.484375 C 4.769531 -21.484375 5.40625 -21.304688 5.84375 -20.953125 C 6.28125 -20.609375 6.5 -20.097656 6.5 -19.421875 C 6.5 -18.785156 6.28125 -18.289062 5.84375 -17.9375 C 5.40625 -17.59375 4.769531 -17.421875 3.9375 -17.421875 Z M 3.9375 -17.421875 "/></g></g><g style="fill:#737373;fill-opacity:1;"><g transform="translate(147.860759, 196.636173)"><path style="stroke:none" d="M 1.859375 0 L 1.859375 -15.21875 L 5.28125 -15.21875 L 5.25 -10.5 L 5.796875 -10.5 C 6.046875 -11.75 6.414062 -12.742188 6.90625 -13.484375 C 7.40625 -14.234375 8.003906 -14.773438 8.703125 -15.109375 C 9.410156 -15.453125 10.207031 -15.625 11.09375 -15.625 C 12.101562 -15.625 12.929688 -15.441406 13.578125 -15.078125 C 14.222656 -14.722656 14.738281 -14.253906 15.125 -13.671875 C 15.507812 -13.097656 15.800781 -12.46875 16 -11.78125 C 16.195312 -11.09375 16.320312 -10.410156 16.375 -9.734375 C 16.4375 -9.054688 16.46875 -8.445312 16.46875 -7.90625 L 16.46875 0 L 12.296875 0 L 12.296875 -7.421875 C 12.296875 -7.785156 12.273438 -8.226562 12.234375 -8.75 C 12.191406 -9.269531 12.085938 -9.785156 11.921875 -10.296875 C 11.765625 -10.816406 11.492188 -11.25 11.109375 -11.59375 C 10.734375 -11.9375 10.207031 -12.109375 9.53125 -12.109375 C 8.757812 -12.109375 8.117188 -11.867188 7.609375 -11.390625 C 7.097656 -10.921875 6.707031 -10.28125 6.4375 -9.46875 C 6.164062 -8.664062 6.03125 -7.757812 6.03125 -6.75 L 6.03125 0 Z M 1.859375 0 "/></g></g><g style="fill:#737373;fill-opacity:1;"><g transform="translate(166.002595, 196.636173)"><path style="stroke:none" d="M 7.359375 0.40625 C 6.109375 0.40625 5.007812 0.0820312 4.0625 -0.5625 C 3.113281 -1.207031 2.378906 -2.132812 1.859375 -3.34375 C 1.335938 -4.550781 1.078125 -5.988281 1.078125 -7.65625 C 1.078125 -9.195312 1.304688 -10.566406 1.765625 -11.765625 C 2.234375 -12.960938 2.921875 -13.898438 3.828125 -14.578125 C 4.734375 -15.253906 5.851562 -15.59375 7.1875 -15.59375 C 8.175781 -15.59375 9.003906 -15.40625 9.671875 -15.03125 C 10.335938 -14.65625 10.882812 -14.109375 11.3125 -13.390625 C 11.75 -12.671875 12.09375 -11.8125 12.34375 -10.8125 L 12.984375 -10.8125 C 12.867188 -11.425781 12.757812 -12.03125 12.65625 -12.625 C 12.550781 -13.226562 12.460938 -13.800781 12.390625 -14.34375 C 12.328125 -14.882812 12.296875 -15.359375 12.296875 -15.765625 L 12.296875 -20.671875 L 16.484375 -20.671875 L 16.484375 0 L 12.984375 0 L 12.984375 -4.4375 L 12.4375 -4.4375 C 12.21875 -3.351562 11.882812 -2.453125 11.4375 -1.734375 C 11 -1.023438 10.441406 -0.488281 9.765625 -0.125 C 9.085938 0.226562 8.285156 0.40625 7.359375 0.40625 Z M 8.78125 -3.015625 C 9.382812 -3.015625 9.90625 -3.148438 10.34375 -3.421875 C 10.789062 -3.691406 11.160156 -4.039062 11.453125 -4.46875 C 11.742188 -4.90625 11.957031 -5.375 12.09375 -5.875 C 12.226562 -6.382812 12.296875 -6.867188 12.296875 -7.328125 L 12.296875 -7.859375 C 12.296875 -8.242188 12.242188 -8.640625 12.140625 -9.046875 C 12.046875 -9.453125 11.898438 -9.84375 11.703125 -10.21875 C 11.515625 -10.59375 11.273438 -10.929688 10.984375 -11.234375 C 10.691406 -11.535156 10.351562 -11.769531 9.96875 -11.9375 C 9.582031 -12.113281 9.164062 -12.203125 8.71875 -12.203125 C 8.03125 -12.203125 7.441406 -12.007812 6.953125 -11.625 C 6.472656 -11.238281 6.101562 -10.703125 5.84375 -10.015625 C 5.582031 -9.328125 5.453125 -8.519531 5.453125 -7.59375 C 5.453125 -6.6875 5.585938 -5.882812 5.859375 -5.1875 C 6.128906 -4.488281 6.515625 -3.953125 7.015625 -3.578125 C 7.515625 -3.203125 8.101562 -3.015625 8.78125 -3.015625 Z M 8.78125 -3.015625 "/></g></g><g style="fill:#737373;fill-opacity:1;"><g transform="translate(184.347278, 196.636173)"><path style="stroke:none" d="M 6.78125 0 L 0.5 -19.125 L 5.046875 -19.125 L 9.53125 -3.53125 L 9.90625 -3.53125 L 14.40625 -19.125 L 18.921875 -19.125 L 12.578125 0 Z M 6.78125 0 "/></g></g><g style="fill:#737373;fill-opacity:1;"><g transform="translate(202.285891, 196.636173)"><path style="stroke:none" d="M 5.453125 0.40625 C 4.597656 0.40625 3.84375 0.242188 3.1875 -0.078125 C 2.53125 -0.410156 2.015625 -0.890625 1.640625 -1.515625 C 1.265625 -2.148438 1.078125 -2.921875 1.078125 -3.828125 C 1.078125 -4.890625 1.3125 -5.726562 1.78125 -6.34375 C 2.257812 -6.96875 2.867188 -7.441406 3.609375 -7.765625 C 4.347656 -8.097656 5.132812 -8.332031 5.96875 -8.46875 C 6.800781 -8.613281 7.578125 -8.738281 8.296875 -8.84375 C 8.953125 -8.9375 9.484375 -9.035156 9.890625 -9.140625 C 10.296875 -9.242188 10.585938 -9.394531 10.765625 -9.59375 C 10.953125 -9.800781 11.046875 -10.082031 11.046875 -10.4375 C 11.046875 -10.820312 10.957031 -11.160156 10.78125 -11.453125 C 10.601562 -11.742188 10.34375 -11.976562 10 -12.15625 C 9.65625 -12.34375 9.203125 -12.4375 8.640625 -12.4375 C 8.097656 -12.4375 7.582031 -12.335938 7.09375 -12.140625 C 6.613281 -11.953125 6.203125 -11.660156 5.859375 -11.265625 C 5.523438 -10.867188 5.300781 -10.367188 5.1875 -9.765625 L 1.484375 -10.8125 C 1.691406 -11.644531 2.007812 -12.359375 2.4375 -12.953125 C 2.875 -13.554688 3.398438 -14.054688 4.015625 -14.453125 C 4.640625 -14.847656 5.335938 -15.140625 6.109375 -15.328125 C 6.890625 -15.523438 7.734375 -15.625 8.640625 -15.625 C 9.816406 -15.625 10.816406 -15.476562 11.640625 -15.1875 C 12.472656 -14.894531 13.144531 -14.453125 13.65625 -13.859375 C 14.175781 -13.273438 14.554688 -12.5625 14.796875 -11.71875 C 15.035156 -10.882812 15.15625 -9.925781 15.15625 -8.84375 L 15.15625 -6.234375 C 15.15625 -5.578125 15.164062 -4.894531 15.1875 -4.1875 C 15.207031 -3.476562 15.238281 -2.773438 15.28125 -2.078125 C 15.332031 -1.390625 15.390625 -0.695312 15.453125 0 L 11.765625 0 C 11.710938 -0.519531 11.648438 -1.09375 11.578125 -1.71875 C 11.515625 -2.351562 11.472656 -3 11.453125 -3.65625 L 10.953125 -3.65625 C 10.679688 -2.914062 10.296875 -2.234375 9.796875 -1.609375 C 9.296875 -0.984375 8.675781 -0.488281 7.9375 -0.125 C 7.207031 0.226562 6.378906 0.40625 5.453125 0.40625 Z M 7.21875 -2.640625 C 7.582031 -2.640625 7.953125 -2.703125 8.328125 -2.828125 C 8.703125 -2.953125 9.066406 -3.140625 9.421875 -3.390625 C 9.785156 -3.640625 10.117188 -3.957031 10.421875 -4.34375 C 10.722656 -4.726562 10.957031 -5.164062 11.125 -5.65625 L 11.078125 -7.9375 L 11.734375 -7.828125 C 11.410156 -7.578125 11.019531 -7.378906 10.5625 -7.234375 C 10.113281 -7.085938 9.640625 -6.972656 9.140625 -6.890625 C 8.648438 -6.816406 8.160156 -6.734375 7.671875 -6.640625 C 7.191406 -6.546875 6.757812 -6.421875 6.375 -6.265625 C 5.988281 -6.109375 5.675781 -5.894531 5.4375 -5.625 C 5.207031 -5.351562 5.09375 -4.984375 5.09375 -4.515625 C 5.09375 -3.941406 5.289062 -3.484375 5.6875 -3.140625 C 6.09375 -2.804688 6.601562 -2.640625 7.21875 -2.640625 Z M 7.21875 -2.640625 "/></g></g><g style="fill:#737373;fill-opacity:1;"><g transform="translate(219.123594, 196.636173)"><path style="stroke:none" d="M 6.953125 0.40625 C 6.203125 0.40625 5.535156 0.296875 4.953125 0.078125 C 4.378906 -0.128906 3.882812 -0.441406 3.46875 -0.859375 C 3.050781 -1.273438 2.707031 -1.773438 2.4375 -2.359375 C 2.164062 -2.953125 1.960938 -3.628906 1.828125 -4.390625 C 1.691406 -5.148438 1.625 -5.992188 1.625 -6.921875 L 1.625 -15.21875 L 5.828125 -15.21875 L 5.828125 -7.859375 C 5.828125 -7.429688 5.835938 -6.945312 5.859375 -6.40625 C 5.890625 -5.863281 5.988281 -5.335938 6.15625 -4.828125 C 6.320312 -4.316406 6.585938 -3.894531 6.953125 -3.5625 C 7.316406 -3.238281 7.832031 -3.078125 8.5 -3.078125 C 9.03125 -3.078125 9.492188 -3.207031 9.890625 -3.46875 C 10.296875 -3.726562 10.640625 -4.101562 10.921875 -4.59375 C 11.210938 -5.082031 11.429688 -5.660156 11.578125 -6.328125 C 11.722656 -6.992188 11.804688 -7.722656 11.828125 -8.515625 L 11.828125 -15.21875 L 16 -15.21875 L 16 0 L 12.609375 0 L 12.609375 -4.875 L 12.09375 -4.875 C 11.832031 -3.632812 11.476562 -2.628906 11.03125 -1.859375 C 10.59375 -1.085938 10.039062 -0.515625 9.375 -0.140625 C 8.707031 0.222656 7.898438 0.40625 6.953125 0.40625 Z M 6.953125 0.40625 "/></g></g><g style="fill:#737373;fill-opacity:1;"><g transform="translate(236.97561, 196.636173)"><path style="stroke:none" d="M 1.859375 0 L 1.859375 -20.671875 L 5.96875 -20.671875 L 5.96875 0 Z M 1.859375 0 "/></g></g><g style="fill:#737373;fill-opacity:1;"><g transform="translate(244.887322, 196.636173)"><path style="stroke:none" d="M 7.53125 0.34375 C 6.707031 0.34375 5.984375 0.234375 5.359375 0.015625 C 4.742188 -0.191406 4.226562 -0.519531 3.8125 -0.96875 C 3.394531 -1.425781 3.078125 -2.007812 2.859375 -2.71875 C 2.648438 -3.4375 2.546875 -4.289062 2.546875 -5.28125 L 2.546875 -11.9375 L 0.375 -11.9375 L 0.46875 -15.15625 L 1.859375 -15.15625 C 2.492188 -15.175781 2.960938 -15.285156 3.265625 -15.484375 C 3.578125 -15.691406 3.765625 -16.054688 3.828125 -16.578125 L 4.171875 -18.609375 L 6.546875 -18.609375 L 6.546875 -15.21875 L 10.375 -15.21875 L 10.375 -11.828125 L 6.546875 -11.828125 L 6.546875 -5.484375 C 6.546875 -4.691406 6.738281 -4.160156 7.125 -3.890625 C 7.507812 -3.617188 7.984375 -3.484375 8.546875 -3.484375 C 8.898438 -3.484375 9.25 -3.523438 9.59375 -3.609375 C 9.9375 -3.691406 10.238281 -3.8125 10.5 -3.96875 L 10.5 -0.09375 C 9.894531 0.0820312 9.34375 0.195312 8.84375 0.25 C 8.34375 0.3125 7.90625 0.34375 7.53125 0.34375 Z M 7.53125 0.34375 "/></g></g></g></svg>